# xmcd
#
# Track frame offsets: 
#        150
#        18816
#        37565
#        57341
#        75989
#        96690
#        118275
#        137285
#        154056
#        172524
#        188523
#        211867
#
# Disc length: 3106 seconds
#
# Revision: 0
# Processed by: cddbd v1.5.2PL0 Copyright (c) Steve Scherf et al.
# Submitted via: ExactAudioCopyFreeDBPlugin 1.0
#
DISCID=830c200c
DTITLE=Steve Dawson - Nightshade
DYEAR=2011
DGENRE=Blues
TTITLE0=Torn And Frayed
TTITLE1=Darker Still
TTITLE2=Nightshade
TTITLE3=Walk On
TTITLE4=Have That Chance
TTITLE5=Gulf Coast Bay
TTITLE6=The Side Of The Road
TTITLE7=We Still Won The War
TTITLE8=Fairweather Friends
TTITLE9=Slow Turns
TTITLE10=The Fray
TTITLE11=The Time It Takes
EXTD=
EXTT0=
EXTT1=
EXTT2=
EXTT3=
EXTT4=
EXTT5=
EXTT6=
EXTT7=
EXTT8=
EXTT9=
EXTT10=
EXTT11=
PLAYORDER=
